<svg width="31" height="27" viewBox="0 0 31 27" fill="none" xmlns="http://www.w3.org/2000/svg">
<path d="M8.7899 0.66808C11.3759 0.65426 13.8343 1.78998 15.5 3.76804C17.1554 1.77646 19.6206 0.637511 22.2102 0.66808C27.0647 0.66808 31 4.6034 31 9.45791C31 17.7769 16.481 25.8997 15.8924 26.2136C15.6549 26.3723 15.3452 26.3723 15.1076 26.2136C14.519 25.8997 0 17.8946 0 9.45791C0 4.6034 3.9354 0.66808 8.7899 0.66808ZM15.5 24.644C17.776 23.3098 29.4304 16.2073 29.4304 9.45791C29.4304 5.47031 26.1978 2.23763 22.2101 2.23763C19.7682 2.20556 17.4829 3.43726 16.1671 5.49457C15.8999 5.86298 15.3846 5.94507 15.0162 5.67783C14.9458 5.62676 14.8839 5.56494 14.8329 5.49457C12.6506 2.15711 8.17596 1.22066 4.8385 3.40294C2.79539 4.7389 1.56564 7.01672 1.5697 9.45783C1.56962 16.2857 13.2241 23.349 15.5 24.644Z" fill="#887569"/>
</svg>
