<svg width="28" height="28" viewBox="0 0 28 28" fill="none" xmlns="http://www.w3.org/2000/svg">
<path d="M27.7653 26.5721L20.9609 19.7676C22.7862 17.6692 23.8913 14.9313 23.8913 11.9388C23.8913 5.35166 18.5334 0 11.9525 0C5.36534 0 0.0136719 5.35787 0.0136719 11.9388C0.0136719 18.5197 5.37154 23.8776 11.9525 23.8776C14.9449 23.8776 17.6829 22.7725 19.7813 20.9472L26.5857 27.7517C26.7472 27.9131 26.9645 28 27.1755 28C27.3866 28 27.6039 27.9193 27.7653 27.7517C28.0882 27.4288 28.0882 26.8949 27.7653 26.5721ZM1.68374 11.9388C1.68374 6.27672 6.29039 1.67628 11.9463 1.67628C17.6084 1.67628 22.2088 6.28293 22.2088 11.9388C22.2088 17.5947 17.6084 22.2075 11.9463 22.2075C6.29039 22.2075 1.68374 17.6009 1.68374 11.9388Z" fill="#887569"/>
</svg>
