<svg width="32" height="32" viewBox="0 0 32 32" fill="none" xmlns="http://www.w3.org/2000/svg">
<g clip-path="url(#clip0_459_117)">
<path d="M31.8688 13.6028C31.7435 13.4335 31.5448 13.3335 31.3341 13.3335H0.667282C0.456594 13.3335 0.257968 13.4335 0.13128 13.6015C0.0059669 13.7708 -0.0327208 13.9895 0.028592 14.1908L3.45792 25.6242C3.88461 27.0455 5.16861 28.0002 6.65124 28.0002H25.35C26.8327 28.0002 28.1167 27.0455 28.542 25.6255L31.9713 14.1921C32.0328 13.9908 31.9941 13.7708 31.8688 13.6028ZM27.2661 25.2415C27.0088 26.0935 26.2394 26.6669 25.3488 26.6669H6.65131C5.76061 26.6669 4.9913 26.0935 4.7353 25.2415L1.56329 14.6668H30.4381L27.2661 25.2415Z" fill="#887569"/>
<path d="M14.3311 4.08808C14.0125 3.9054 13.6045 4.01477 13.4205 4.33609L8.08711 13.6694C7.90579 13.9894 8.01642 14.3961 8.33642 14.5788C8.44042 14.6388 8.55373 14.6668 8.66711 14.6668C8.8978 14.6668 9.12311 14.5468 9.24711 14.3308L14.5805 4.9974C14.7618 4.6774 14.6511 4.27071 14.3311 4.08808Z" fill="#887569"/>
<path d="M23.9134 13.6694L18.58 4.33609C18.3934 4.01477 17.984 3.9054 17.6693 4.08808C17.348 4.27077 17.2373 4.6774 17.42 4.9974L22.7534 14.3308C22.8774 14.5468 23.1027 14.6668 23.3334 14.6668C23.4467 14.6668 23.5601 14.6388 23.6641 14.5788C23.9854 14.3961 24.0961 13.9894 23.9134 13.6694Z" fill="#887569"/>
</g>
<defs>
<clipPath id="clip0_459_117">
<rect width="32" height="32" fill="white"/>
</clipPath>
</defs>
</svg>
